<?xml version="1.0" encoding="UTF-8"?>
<svg width="45px" height="45px" viewBox="0 0 45 45" version="1.1" xmlns="http://www.w3.org/2000/svg" xmlns:xlink="http://www.w3.org/1999/xlink">
    <!-- Generator: sketchtool 57.1 (101010) - https://sketch.com -->
    <title>1194DDA5-6F71-4292-8D67-BEF3FBC3FFB4@1.00x</title>
    <desc>Created with sketchtool.</desc>
    <defs>
        <path d="M22.5,0 C34.9264069,0 45,10.0735931 45,22.5 C45,34.9264069 34.9264069,45 22.5,45 C10.0735931,45 0,34.9264069 0,22.5 C0,10.0735931 10.0735931,0 22.5,0 Z M31.8317855,14.7283617 C30.7586887,13.859553 29.1844632,14.0251613 28.3156546,15.0982581 L28.3156546,15.0982581 L19.9283832,25.4576785 L16.5725629,21.5684566 C15.6705723,20.5230963 14.0919325,20.4068721 13.0465721,21.3088627 C12.0012117,22.2108532 11.8849876,23.7894931 12.7869782,24.8348534 L12.7869782,24.8348534 L18.0966399,30.9884764 C19.1145714,32.1682063 20.9519615,32.1394268 21.932446,30.9283952 L21.932446,30.9283952 L32.2016819,18.2444926 C33.0704906,17.1713958 32.9048823,15.5971704 31.8317855,14.7283617 Z" id="path-1"></path>
    </defs>
    <g id="Page-1" stroke="none" stroke-width="1" fill="none" fill-rule="evenodd">
        <g id="Day-1---Enrolled" transform="translate(-278.000000, -111.000000)">
            <g id="icons/inverted/checkmark-circle" transform="translate(278.000000, 111.000000)">
                <mask id="mask-2" fill="white">
                    <use xlink:href="#path-1"></use>
                </mask>
                <use id="checkmark-circle" fill="#33AACC" fill-rule="evenodd" xlink:href="#path-1"></use>
                <g id="colors/accent/green/-" mask="url(#mask-2)" fill="#36D57D" fill-rule="evenodd">
                    <rect id="Color" x="0" y="0" width="45" height="45"></rect>
                </g>
            </g>
        </g>
    </g>
</svg>